<?xml version="1.0" standalone="no"?>
<!DOCTYPE svg PUBLIC "-//W3C//DTD SVG 20010904//EN"
 "http://www.w3.org/TR/2001/REC-SVG-20010904/DTD/svg10.dtd">
<svg version="1.0" xmlns="http://www.w3.org/2000/svg"
 width="260.000000pt" height="260.000000pt" viewBox="0 0 260.000000 260.000000"
 preserveAspectRatio="xMidYMid meet">
<metadata>
Created by potrace 1.11, written by Peter Selinger 2001-2013
</metadata>
<g transform="translate(0.000000,260.000000) scale(0.100000,-0.100000)"
fill="#000000" stroke="none">
<path d="M1234 2568 c-33 -31 -37 -40 -36 -78 2 -55 20 -82 68 -105 34 -16 42
-16 79 -4 52 18 88 82 74 132 -14 48 -50 78 -102 84 -40 5 -48 2 -83 -29z"/>
<path d="M1020 2278 c25 -23 65 -60 90 -84 l46 -42 -1 -126 c0 -69 3 -126 7
-126 4 0 37 25 73 55 68 58 79 63 92 42 4 -7 34 -34 66 -61 l57 -48 0 126 0
127 53 48 c28 26 72 67 97 89 l45 41 -335 0 -335 0 45 -41z"/>
<path d="M586 2030 l-238 -239 127 6 128 6 87 -92 c100 -104 97 -105 106 20 2
40 6 74 7 75 3 2 150 16 171 16 18 -1 18 0 0 20 -11 12 -47 49 -81 83 -70 69
-82 93 -78 150 2 22 6 75 10 118 3 42 4 77 3 77 -2 0 -111 -108 -242 -240z"/>
<path d="M395 2227 c-37 -37 -45 -79 -25 -131 31 -83 169 -79 204 7 31 73 -15
145 -98 154 -42 5 -48 3 -81 -30z"/>
<path d="M1785 2238 c2 -13 6 -67 10 -121 l6 -99 -92 -93 c-61 -63 -87 -96
-78 -99 22 -7 90 -15 136 -16 l41 0 0 -46 c0 -25 3 -68 7 -96 l7 -50 88 87 88
88 59 -2 c32 0 92 -3 133 -7 l75 -5 -240 240 c-132 133 -241 241 -242 241 -1
0 0 -10 2 -22z"/>
<path d="M2083 2238 c-33 -16 -63 -83 -53 -116 15 -50 22 -61 48 -78 56 -37
141 -12 166 48 43 100 -61 194 -161 146z"/>
<path d="M1265 1874 c-22 -19 -65 -55 -96 -79 -57 -45 -88 -52 -246 -59 -24
-2 -44 -4 -47 -7 -2 -2 -6 -47 -10 -99 -3 -52 -8 -106 -11 -119 -5 -26 -69
-112 -120 -163 -19 -18 -35 -37 -35 -43 0 -5 15 -26 33 -45 56 -61 106 -127
116 -154 6 -14 13 -72 17 -128 4 -57 7 -104 8 -104 0 -1 32 -5 71 -8 160 -15
167 -17 225 -61 30 -23 72 -59 94 -79 l39 -37 26 23 c14 13 34 31 44 40 10 10
41 35 70 57 54 41 72 45 217 57 41 3 75 6 76 7 1 1 4 51 8 110 3 59 11 118 17
130 15 28 72 101 117 149 l34 36 -69 84 c-38 45 -74 90 -81 99 -7 9 -15 66
-18 130 -4 63 -8 115 -9 117 -2 2 -25 5 -52 7 -184 15 -185 15 -241 58 -29 22
-71 57 -94 78 -22 22 -41 39 -42 39 0 0 -19 -16 -41 -36z m80 -72 c55 -49 128
-102 144 -103 9 0 25 -2 36 -4 11 -2 48 -6 83 -9 35 -2 66 -7 70 -10 7 -8 8
-11 16 -116 7 -98 16 -114 122 -230 l23 -26 -60 -73 c-33 -41 -64 -82 -69 -91
-8 -15 -18 -89 -24 -187 -1 -12 -4 -24 -6 -26 -3 -3 -36 -8 -75 -11 -126 -12
-137 -16 -208 -75 -38 -31 -74 -60 -81 -65 -9 -6 -38 11 -94 57 -85 68 -90 70
-222 83 -36 3 -67 8 -69 10 -6 6 -8 16 -16 107 -4 39 -9 80 -11 90 -3 17 -54
86 -106 143 l-29 31 59 74 c79 99 80 102 88 210 4 52 7 95 8 96 1 1 28 5 61 8
33 3 74 8 90 10 17 2 37 4 47 4 9 1 51 30 95 65 43 36 83 65 88 65 6 1 24 -11
40 -27z"/>
<path d="M979 1498 c-1 -2 -2 -56 -3 -120 l-1 -118 30 -1 c91 -3 119 4 133 36
12 26 -1 85 -20 85 -5 0 -2 7 6 16 24 23 20 70 -6 88 -18 13 -134 24 -139 14z
m107 -36 c16 -3 24 -38 11 -51 -6 -6 -28 -11 -49 -11 -36 0 -38 1 -38 33 0 31
2 33 33 32 17 -1 37 -3 43 -3z m15 -113 c21 -34 -4 -59 -60 -59 -28 0 -31 3
-31 33 0 19 2 36 5 39 10 10 78 0 86 -13z"/>
<path d="M1200 1380 c0 -113 1 -120 20 -120 18 0 19 6 17 60 -4 82 5 90 33 30
13 -27 29 -50 37 -50 7 0 24 23 38 50 14 28 27 50 29 50 2 0 2 -31 1 -70 -2
-63 0 -70 16 -70 20 0 21 8 21 180 0 60 -1 60 -21 60 -13 0 -27 -20 -50 -72
l-33 -73 -36 73 c-25 49 -42 72 -54 72 -16 0 -18 -12 -18 -120z"/>
<path d="M1490 1475 c-19 -20 -23 -35 -23 -95 0 -62 3 -75 24 -95 25 -24 37
-28 77 -26 24 1 72 42 72 61 0 17 -29 11 -50 -10 -24 -24 -53 -26 -71 -4 -18
21 -17 127 0 148 18 22 48 20 68 -4 18 -21 53 -27 53 -10 0 6 -11 22 -25 35
-33 34 -93 34 -125 0z"/>
<path d="M1046 1188 c-13 -19 -14 -25 -2 -43 7 -11 26 -22 42 -25 32 -6 45
-36 19 -46 -9 -4 -27 -2 -40 4 -27 12 -40 5 -24 -15 12 -14 67 -18 85 -5 6 4
14 17 18 28 7 23 -14 53 -40 55 -8 1 -20 2 -26 3 -7 0 -13 10 -13 21 0 15 7
20 30 21 47 2 51 4 35 14 -27 17 -68 11 -84 -12z"/>
<path d="M1295 1138 c0 -55 4 -73 17 -82 9 -6 21 -6 25 -2 4 5 2 11 -4 13 -9
3 -13 28 -13 74 0 50 -4 69 -13 69 -10 0 -13 -19 -12 -72z"/>
<path d="M1178 1152 c-11 -13 -10 -15 14 -10 16 3 32 0 38 -7 8 -10 2 -14 -25
-19 -32 -6 -36 -10 -33 -34 3 -24 8 -27 46 -30 l42 -3 0 50 c0 27 -5 53 -12
57 -22 14 -57 12 -70 -4z m53 -67 c0 -5 -9 -11 -21 -13 -20 -3 -27 8 -13 22
10 9 34 3 34 -9z"/>
<path d="M1371 1151 c-22 -22 -21 -79 1 -93 18 -11 50 -10 68 2 15 10 13 11
-29 13 -41 3 -38 27 3 27 29 0 36 4 36 19 0 18 -34 51 -52 51 -5 0 -17 -9 -27
-19z m38 -31 c-27 -7 -39 8 -18 21 8 4 19 3 27 -4 12 -10 11 -13 -9 -17z"/>
<path d="M1491 1153 c-17 -11 -19 -18 -11 -34 6 -11 21 -19 35 -19 16 0 25 -6
25 -16 0 -11 -8 -15 -30 -12 -16 1 -31 -2 -32 -7 -4 -14 61 -19 77 -5 22 18
11 44 -23 55 -35 10 -38 30 -5 30 21 0 45 14 27 16 -5 0 -17 2 -26 4 -9 2 -26
-4 -37 -12z"/>
<path d="M280 1307 l0 -338 73 85 c39 46 81 88 92 92 11 4 72 9 135 10 63 1
117 2 119 3 5 2 -47 71 -82 108 -30 32 -30 42 3 73 26 24 81 101 77 107 -3 4
-58 7 -122 7 l-116 -1 -32 31 c-18 17 -58 60 -89 96 l-57 65 -1 -338z"/>
<path d="M2259 1568 c-112 -129 -90 -118 -240 -118 l-131 0 43 -52 c24 -29 46
-55 49 -58 34 -33 33 -38 -24 -105 -31 -36 -56 -70 -56 -75 0 -6 43 -9 108 -8
59 1 117 -2 129 -6 11 -4 56 -47 98 -96 43 -50 79 -90 80 -90 2 0 3 151 3 335
0 184 -1 335 -3 335 -1 0 -27 -28 -56 -62z"/>
<path d="M60 1407 c-14 -7 -34 -28 -44 -48 -51 -95 46 -198 144 -154 44 20 64
51 64 103 0 84 -88 137 -164 99z"/>
<path d="M2424 1391 c-87 -53 -56 -192 46 -204 41 -5 67 3 97 32 31 29 38 65
24 112 -21 71 -102 100 -167 60z"/>
<path d="M1820 990 c-2 -57 -14 -177 -19 -182 -3 -3 -37 -9 -76 -13 -119 -10
-118 -6 -20 -105 l87 -88 -7 -123 c-4 -68 -9 -127 -12 -131 -16 -28 33 19 232
219 124 125 231 233 237 240 9 11 -2 12 -58 8 -38 -3 -93 -6 -122 -7 l-52 -2
-95 94 c-52 52 -95 92 -95 90z"/>
<path d="M680 893 l-85 -85 -114 6 c-63 4 -118 9 -122 12 -4 2 -10 1 -13 -4
-3 -5 101 -114 230 -243 l235 -234 -6 123 -6 122 90 92 c50 51 89 93 87 95 -6
6 -85 16 -129 15 -28 0 -50 5 -52 12 -2 6 -6 47 -9 91 -3 44 -5 81 -6 83 -1
11 -27 -11 -100 -85z"/>
<path d="M1415 683 c-16 -14 -41 -35 -55 -47 -59 -49 -57 -49 -77 -29 -35 34
-111 93 -120 93 -5 0 -9 -53 -9 -117 l1 -118 -40 -40 c-22 -22 -67 -63 -100
-91 l-59 -51 337 0 c185 0 337 3 337 6 -1 3 -26 26 -56 51 -30 25 -69 59 -87
76 l-32 32 -5 130 -5 130 -30 -25z"/>
<path d="M404 561 c-41 -25 -61 -60 -58 -100 4 -47 23 -80 56 -97 98 -51 202
49 156 150 -24 55 -102 78 -154 47z"/>
<path d="M2092 564 c-35 -14 -72 -67 -72 -102 0 -13 7 -36 14 -51 53 -101 200
-73 213 41 5 42 2 49 -28 81 -39 41 -80 51 -127 31z"/>
<path d="M1255 221 c-48 -20 -78 -84 -64 -135 35 -126 219 -103 219 28 0 48
-19 80 -60 101 -32 16 -64 18 -95 6z"/>
</g>
</svg>
