<!DOCTYPE svg PUBLIC "-//W3C//DTD SVG 20010904//EN" "http://www.w3.org/TR/2001/REC-SVG-20010904/DTD/svg10.dtd">
<svg version="1.0" xmlns="http://www.w3.org/2000/svg" width="500px" height="500px" viewBox="0 0 5000 5000" preserveAspectRatio="xMidYMid meet">
<g id="layer101" fill="#ff7a08" stroke="none">
 <path d="M2385 4971 c-121 -69 -143 -240 -46 -344 71 -77 182 -94 268 -41 123 77 152 236 60 340 -70 81 -188 99 -282 45z"/>
 <path d="M1842 4451 c2 -5 77 -74 168 -153 91 -79 174 -157 185 -174 18 -26 20 -51 25 -262 l5 -234 76 59 c42 32 106 85 143 117 l67 59 42 -40 c63 -60 226 -193 237 -193 6 0 10 95 10 246 0 149 4 253 10 265 6 10 84 82 173 160 89 78 164 146 165 150 2 5 -290 9 -653 9 -379 0 -655 -4 -653 -9z"/>
 <path d="M3410 4351 c0 -8 7 -107 16 -220 9 -113 14 -226 11 -250 -5 -41 -15 -54 -173 -212 -92 -93 -166 -170 -163 -173 8 -9 242 -36 306 -36 l63 0 0 -57 c0 -58 29 -304 36 -312 3 -3 81 74 174 171 138 143 175 177 202 181 18 2 127 -2 242 -9 115 -8 212 -11 215 -8 3 2 -205 215 -462 472 -257 257 -467 461 -467 453z"/>
 <path d="M1100 3885 c-255 -255 -462 -467 -459 -470 3 -3 98 2 210 11 305 24 271 36 475 -167 l171 -171 12 89 c7 48 15 134 18 191 l6 102 83 0 c46 0 118 5 161 11 143 19 148 -2 -49 197 -130 130 -177 185 -181 207 -3 17 1 126 9 244 7 118 12 216 11 217 -2 2 -212 -206 -467 -461z"/>
 <path d="M4065 4330 c-59 -8 -106 -39 -142 -93 -59 -88 -53 -188 15 -268 61 -71 149 -96 243 -68 182 55 202 326 31 412 -34 18 -95 25 -147 17z"/>
 <path d="M773 4305 c-32 -16 -61 -41 -79 -67 -26 -38 -29 -49 -29 -128 0 -79 3 -90 28 -127 61 -88 191 -123 282 -75 84 43 125 111 125 206 -1 167 -173 267 -327 191z"/>
 <path d="M2411 3595 c-51 -47 -134 -116 -185 -154 l-91 -69 -131 -16 c-72 -9 -153 -16 -180 -16 -27 0 -73 -3 -101 -6 l-53 -7 0 -66 c0 -113 -31 -384 -46 -409 -17 -26 -194 -244 -255 -314 l-42 -48 84 -87 c46 -49 116 -131 155 -183 l72 -95 16 -165 c9 -91 16 -195 16 -231 l0 -66 133 -7 c72 -4 180 -13 238 -20 l107 -13 95 -76 c52 -41 133 -110 181 -152 l86 -77 65 61 c82 76 273 231 300 242 26 11 322 39 408 39 l67 0 0 108 c0 59 7 165 15 235 l15 129 75 97 c41 54 110 136 153 182 l79 83 -84 96 c-47 52 -116 136 -153 185 l-69 90 -16 125 c-8 68 -15 173 -15 231 l0 107 -77 6 c-171 12 -386 37 -404 47 -33 17 -215 166 -287 234 -38 36 -71 65 -73 65 -2 -1 -46 -39 -98 -85z m167 -133 c37 -31 106 -88 154 -125 l86 -67 139 -20 c76 -11 161 -20 188 -20 92 -1 95 -3 95 -78 0 -36 7 -126 16 -201 l17 -136 57 -75 c32 -41 89 -113 127 -159 l71 -84 -62 -71 c-34 -39 -90 -109 -126 -155 -61 -81 -64 -88 -77 -170 -7 -47 -16 -141 -19 -207 l-7 -121 -96 -8 c-53 -3 -147 -13 -210 -21 l-113 -14 -97 -77 c-53 -42 -122 -99 -154 -126 l-57 -49 -29 23 c-225 183 -272 220 -293 228 -12 5 -109 17 -213 27 l-191 18 -18 190 c-10 105 -22 200 -26 211 -7 20 -128 177 -214 279 l-39 47 30 32 c17 18 74 87 127 154 l97 123 14 112 c7 62 17 155 21 205 l7 93 31 4 c17 3 65 8 107 11 42 3 121 12 175 20 l98 15 90 69 c50 38 120 95 156 125 36 31 66 56 68 56 2 0 33 -26 70 -58z"/>
 <path d="M2034 2983 c-12 -2 -30 -13 -40 -24 -16 -18 -17 -21 -1 -36 13 -13 21 -14 39 -5 46 22 69 24 94 7 17 -11 24 -24 22 -38 -3 -21 -14 -26 -91 -42 -43 -9 -67 -39 -67 -85 0 -73 75 -117 154 -90 50 16 61 33 36 55 -16 14 -23 15 -34 6 -23 -19 -77 -17 -92 4 -22 30 -1 52 61 65 85 18 116 71 80 139 -21 42 -84 59 -161 44z"/>
 <path d="M2280 2983 c-25 -8 -40 -35 -40 -69 0 -42 30 -64 87 -64 36 0 43 -3 43 -20 0 -25 -40 -36 -70 -20 -18 10 -25 9 -38 -4 -15 -15 -15 -17 1 -33 13 -13 33 -18 73 -17 80 0 88 13 92 133 l4 99 -69 0 c-37 0 -75 -3 -83 -5z m88 -70 c3 -20 -1 -23 -31 -23 -35 0 -48 13 -39 38 3 8 17 12 36 10 23 -2 32 -8 34 -25z"/>
 <path d="M2509 2971 c-23 -18 -24 -26 -27 -160 l-4 -141 31 0 31 0 0 131 c0 122 1 131 20 136 13 3 20 14 20 29 0 30 -37 33 -71 5z"/>
 <path d="M2650 2977 c-70 -35 -66 -190 6 -217 67 -26 128 13 139 88 l7 42 -77 0 -77 0 14 23 c19 27 43 33 74 16 19 -10 26 -10 39 1 22 18 19 28 -15 45 -35 18 -76 19 -110 2z m90 -135 c0 -5 -6 -16 -13 -26 -17 -23 -45 -18 -65 12 -14 22 -14 22 32 22 25 0 46 -4 46 -8z"/>
 <path d="M2853 2975 c-36 -16 -41 -26 -18 -45 12 -10 21 -10 41 -1 36 16 74 14 81 -5 8 -20 -13 -34 -53 -34 -46 0 -68 -21 -68 -65 0 -39 18 -61 62 -72 25 -6 80 3 102 17 12 7 12 12 -3 28 -15 17 -23 18 -46 9 -32 -12 -61 -4 -61 16 0 9 19 17 52 23 41 7 56 15 67 35 42 76 -58 137 -156 94z"/>
 <path d="M2920 2579 c-14 -6 -36 -20 -48 -32 -46 -43 -54 -72 -54 -203 0 -103 3 -129 19 -156 31 -54 77 -78 145 -78 63 0 101 14 134 52 17 18 44 77 44 94 0 2 -20 4 -45 4 -34 0 -45 -4 -45 -15 0 -9 -11 -27 -25 -40 -34 -35 -78 -33 -116 4 -29 29 -29 31 -29 141 0 104 1 112 25 135 33 34 93 34 123 2 12 -13 22 -29 22 -35 0 -8 17 -12 46 -12 42 0 45 1 39 23 -30 98 -141 153 -235 116z"/>
 <path d="M1870 2345 l0 -235 115 0 c126 0 157 9 194 56 27 35 28 98 1 142 l-20 33 21 28 c29 39 35 100 15 143 -28 58 -57 68 -200 68 l-126 0 0 -235z m239 139 c27 -34 26 -50 -4 -79 -21 -22 -33 -25 -90 -25 l-65 0 0 65 0 65 69 0 c63 0 71 -2 90 -26z m-10 -198 c53 -48 4 -106 -90 -106 l-59 0 0 66 0 66 64 -4 c45 -3 71 -10 85 -22z"/>
 <path d="M2300 2345 l0 -235 43 0 42 1 60 130 c32 72 62 132 66 134 3 3 33 -55 66 -128 l61 -132 41 -3 41 -3 0 235 0 236 -40 0 -40 0 -1 -137 -1 -138 -46 97 c-45 94 -48 98 -79 98 -30 0 -34 -4 -81 -102 l-50 -103 -1 143 -1 142 -40 0 -40 0 0 -235z"/>
 <path d="M4310 3005 c-78 -90 -157 -176 -175 -190 l-34 -25 -235 0 c-130 0 -236 -2 -236 -5 0 -13 151 -203 194 -245 l46 -44 -54 -56 c-30 -30 -84 -93 -120 -140 l-65 -85 247 -5 c228 -5 250 -7 274 -25 14 -11 85 -88 157 -172 72 -84 136 -155 141 -158 7 -4 10 221 10 654 0 364 -2 661 -4 661 -2 0 -67 -74 -146 -165z"/>
 <path d="M530 2486 c0 -361 4 -656 9 -656 4 0 72 74 149 164 78 90 154 172 169 182 25 17 55 20 271 24 l243 5 -79 105 c-44 58 -98 123 -120 144 l-41 39 48 53 c53 58 181 219 181 228 0 3 -107 6 -237 6 -216 0 -241 2 -269 19 -17 11 -93 90 -168 178 -75 87 -141 160 -147 161 -5 2 -9 -243 -9 -652z"/>
 <path d="M4707 2717 c-54 -17 -98 -57 -126 -111 -19 -39 -23 -59 -19 -114 7 -127 91 -207 218 -207 80 0 142 32 186 97 26 39 29 51 29 125 0 74 -3 85 -30 125 -55 78 -167 115 -258 85z"/>
 <path d="M135 2696 c-125 -55 -173 -204 -105 -323 42 -73 95 -103 183 -103 80 0 104 9 156 55 54 49 75 108 68 187 -7 77 -43 132 -112 170 -56 31 -138 37 -190 14z"/>
 <path d="M1322 1713 l-171 -176 -143 6 c-79 4 -188 10 -243 14 l-100 6 62 -69 c104 -116 862 -869 868 -862 4 3 -1 102 -10 220 -9 117 -14 233 -10 258 6 42 17 56 172 212 188 188 184 169 34 188 -46 5 -119 10 -163 10 l-78 0 0 73 c0 39 -7 119 -15 177 -8 58 -15 108 -15 113 -1 20 -32 -7 -188 -170z"/>
 <path d="M3496 1878 c-7 -23 -26 -243 -26 -301 l0 -57 -78 0 c-44 0 -117 -5 -163 -10 -150 -19 -155 1 39 -193 119 -119 175 -182 181 -205 7 -21 5 -94 -5 -215 -8 -100 -14 -197 -12 -215 3 -31 17 -19 468 433 l465 465 -50 0 c-28 0 -127 -7 -221 -14 -94 -8 -189 -12 -211 -9 -36 5 -57 22 -204 169 -90 90 -167 164 -172 164 -4 0 -9 -6 -11 -12z"/>
 <path d="M2220 1125 c0 -211 -2 -251 -16 -273 -9 -15 -90 -90 -180 -167 -90 -77 -163 -143 -164 -147 0 -5 297 -8 660 -8 363 0 660 2 660 5 0 2 -73 68 -162 146 -90 78 -175 157 -190 177 l-28 36 0 238 c0 131 -3 238 -6 238 -10 0 -132 -97 -215 -171 l-76 -68 -29 31 c-27 28 -215 185 -241 202 -10 6 -13 -45 -13 -239z"/>
 <path d="M4030 1094 c-121 -52 -172 -205 -107 -317 89 -151 315 -148 392 6 61 124 0 283 -123 317 -52 14 -121 12 -162 -6z"/>
 <path d="M805 1073 c-80 -42 -118 -107 -118 -205 0 -53 5 -75 26 -110 41 -70 108 -108 190 -108 158 0 258 137 213 292 -17 58 -70 119 -122 138 -40 16 -155 11 -189 -7z"/>
 <path d="M2425 418 c-90 -46 -125 -103 -125 -204 0 -85 30 -142 98 -185 39 -25 56 -29 114 -29 86 0 124 16 171 70 46 54 60 98 55 166 -13 152 -181 251 -313 182z"/>
 </g>

</svg>