<svg version="1.0" xmlns="http://www.w3.org/2000/svg" width="346.667" height="346.667" viewBox="0 0 260 260"><path d="M123.4 3.2c-3.3 3.1-3.7 4-3.6 7.8.2 5.5 2 8.2 6.8 10.5 3.4 1.6 4.2 1.6 7.9.4 5.2-1.8 8.8-8.2 7.4-13.2-1.4-4.8-5-7.8-10.2-8.4-4-.5-4.8-.2-8.3 2.9zm-21.4 29c2.5 2.3 6.5 6 9 8.4l4.6 4.2-.1 12.6c0 6.9.3 12.6.7 12.6.4 0 3.7-2.5 7.3-5.5 6.8-5.8 7.9-6.3 9.2-4.2.4.7 3.4 3.4 6.6 6.1l5.7 4.8V45.9l5.3-4.8c2.8-2.6 7.2-6.7 9.7-8.9l4.5-4.1h-67l4.5 4.1zM58.6 57L34.8 80.9l12.7-.6 12.8-.6 8.7 9.2c10 10.4 9.7 10.5 10.6-2 .2-4 .6-7.4.7-7.5.3-.2 15-1.6 17.1-1.6 1.8.1 1.8 0 0-2-1.1-1.2-4.7-4.9-8.1-8.3-7-6.9-8.2-9.3-7.8-15 .2-2.2.6-7.5 1-11.8.3-4.2.4-7.7.3-7.7-.2 0-11.1 10.8-24.2 24zM39.5 37.3C35.8 41 35 45.2 37 50.4c3.1 8.3 16.9 7.9 20.4-.7 3.1-7.3-1.5-14.5-9.8-15.4-4.2-.5-4.8-.3-8.1 3zm139-1.1c.2 1.3.6 6.7 1 12.1l.6 9.9-9.2 9.3c-6.1 6.3-8.7 9.6-7.8 9.9 2.2.7 9 1.5 13.6 1.6h4.1v4.6c0 2.5.3 6.8.7 9.6l.7 5 8.8-8.7 8.8-8.8 5.9.2c3.2 0 9.2.3 13.3.7l7.5.5-24-24C189.3 44.8 178.4 34 178.3 34c-.1 0 0 1 .2 2.2zm29.8 0c-3.3 1.6-6.3 8.3-5.3 11.6 1.5 5 2.2 6.1 4.8 7.8 5.6 3.7 14.1 1.2 16.6-4.8 4.3-10-6.1-19.4-16.1-14.6z"/><path d="M126.5 72.6c-2.2 1.9-6.5 5.5-9.6 7.9-5.7 4.5-8.8 5.2-24.6 5.9-2.4.2-4.4.4-4.7.7-.2.2-.6 4.7-1 9.9-.3 5.2-.8 10.6-1.1 11.9-.5 2.6-6.9 11.2-12 16.3-1.9 1.8-3.5 3.7-3.5 4.3 0 .5 1.5 2.6 3.3 4.5 5.6 6.1 10.6 12.7 11.6 15.4.6 1.4 1.3 7.2 1.7 12.8.4 5.7.7 10.4.8 10.4 0 .1 3.2.5 7.1.8 16 1.5 16.7 1.7 22.5 6.1 3 2.3 7.2 5.9 9.4 7.9l3.9 3.7 2.6-2.3c1.4-1.3 3.4-3.1 4.4-4 1-1 4.1-3.5 7-5.7 5.4-4.1 7.2-4.5 21.7-5.7 4.1-.3 7.5-.6 7.6-.7.1-.1.4-5.1.8-11 .3-5.9 1.1-11.8 1.7-13 1.5-2.8 7.2-10.1 11.7-14.9l3.4-3.6-6.9-8.4c-3.8-4.5-7.4-9-8.1-9.9-.7-.9-1.5-6.6-1.8-13-.4-6.3-.8-11.5-.9-11.7-.2-.2-2.5-.5-5.2-.7-18.4-1.5-18.5-1.5-24.1-5.8-2.9-2.2-7.1-5.7-9.4-7.8-2.2-2.2-4.1-3.9-4.2-3.9 0 0-1.9 1.6-4.1 3.6zm8 7.2c5.5 4.9 12.8 10.2 14.4 10.3.9 0 2.5.2 3.6.4s4.8.6 8.3.9c3.5.2 6.6.7 7 1 .7.8.8 1.1 1.6 11.6.7 9.8 1.6 11.4 12.2 23l2.3 2.6-6 7.3c-3.3 4.1-6.4 8.2-6.9 9.1-.8 1.5-1.8 8.9-2.4 18.7-.1 1.2-.4 2.4-.6 2.6-.3.3-3.6.8-7.5 1.1-12.6 1.2-13.7 1.6-20.8 7.5-3.8 3.1-7.4 6-8.1 6.5-.9.6-3.8-1.1-9.4-5.7-8.5-6.8-9-7-22.2-8.3-3.6-.3-6.7-.8-6.9-1-.6-.6-.8-1.6-1.6-10.7-.4-3.9-.9-8-1.1-9-.3-1.7-5.4-8.6-10.6-14.3l-2.9-3.1 5.9-7.4c7.9-9.9 8-10.2 8.8-21 .4-5.2.7-9.5.8-9.6.1-.1 2.8-.5 6.1-.8 3.3-.3 7.4-.8 9-1 1.7-.2 3.7-.4 4.7-.4.9-.1 5.1-3 9.5-6.5 4.3-3.6 8.3-6.5 8.8-6.5.6-.1 2.4 1.1 4 2.7z"/><path d="M97.9 110.2c-.1.2-.2 5.6-.3 12l-.1 11.8 3 .1c9.1.3 11.9-.4 13.3-3.6 1.2-2.6-.1-8.5-2-8.5-.5 0-.2-.7.6-1.6 2.4-2.3 2-7-.6-8.8-1.8-1.3-13.4-2.4-13.9-1.4zm10.7 3.6c1.6.3 2.4 3.8 1.1 5.1-.6.6-2.8 1.1-4.9 1.1-3.6 0-3.8-.1-3.8-3.3 0-3.1.2-3.3 3.3-3.2 1.7.1 3.7.3 4.3.3zm1.5 11.3c2.1 3.4-.4 5.9-6 5.9-2.8 0-3.1-.3-3.1-3.3 0-1.9.2-3.6.5-3.9 1-1 7.8 0 8.6 1.3zm9.9-3.1c0 11.3.1 12 2 12 1.8 0 1.9-.6 1.7-6-.4-8.2.5-9 3.3-3 1.3 2.7 2.9 5 3.7 5 .7 0 2.4-2.3 3.8-5 1.4-2.8 2.7-5 2.9-5 .2 0 .2 3.1.1 7-.2 6.3 0 7 1.6 7 2 0 2.1-.8 2.1-18 0-6-.1-6-2.1-6-1.3 0-2.7 2-5 7.2l-3.3 7.3-3.6-7.3c-2.5-4.9-4.2-7.2-5.4-7.2-1.6 0-1.8 1.2-1.8 12zm29-9.5c-1.9 2-2.3 3.5-2.3 9.5 0 6.2.3 7.5 2.4 9.5 2.5 2.4 3.7 2.8 7.7 2.6 2.4-.1 7.2-4.2 7.2-6.1 0-1.7-2.9-1.1-5 1-2.4 2.4-5.3 2.6-7.1.4-1.8-2.1-1.7-12.7 0-14.8 1.8-2.2 4.8-2 6.8.4 1.8 2.1 5.3 2.7 5.3 1 0-.6-1.1-2.2-2.5-3.5-3.3-3.4-9.3-3.4-12.5 0zm-44.4 28.7c-1.3 1.9-1.4 2.5-.2 4.3.7 1.1 2.6 2.2 4.2 2.5 3.2.6 4.5 3.6 1.9 4.6-.9.4-2.7.2-4-.4-2.7-1.2-4-.5-2.4 1.5 1.2 1.4 6.7 1.8 8.5.5.6-.4 1.4-1.7 1.8-2.8.7-2.3-1.4-5.3-4-5.5-.8-.1-2-.2-2.6-.3-.7 0-1.3-1-1.3-2.1 0-1.5.7-2 3-2.1 4.7-.2 5.1-.4 3.5-1.4-2.7-1.7-6.8-1.1-8.4 1.2zm24.9 5c0 5.5.4 7.3 1.7 8.2.9.6 2.1.6 2.5.2.4-.5.2-1.1-.4-1.3-.9-.3-1.3-2.8-1.3-7.4 0-5-.4-6.9-1.3-6.9-1 0-1.3 1.9-1.2 7.2zm-11.7-1.4c-1.1 1.3-1 1.5 1.4 1 1.6-.3 3.2 0 3.8.7.8 1 .2 1.4-2.5 1.9-3.2.6-3.6 1-3.3 3.4.3 2.4.8 2.7 4.6 3l4.2.3v-5c0-2.7-.5-5.3-1.2-5.7-2.2-1.4-5.7-1.2-7 .4zm5.3 6.7c0 .5-.9 1.1-2.1 1.3-2 .3-2.7-.8-1.3-2.2 1-.9 3.4-.3 3.4.9zm14-6.6c-2.2 2.2-2.1 7.9.1 9.3 1.8 1.1 5 1 6.8-.2 1.5-1 1.3-1.1-2.9-1.3-4.1-.3-3.8-2.7.3-2.7 2.9 0 3.6-.4 3.6-1.9 0-1.8-3.4-5.1-5.2-5.1-.5 0-1.7.9-2.7 1.9zm3.8 3.1c-2.7.7-3.9-.8-1.8-2.1.8-.4 1.9-.3 2.7.4 1.2 1 1.1 1.3-.9 1.7zm8.2-3.3c-1.7 1.1-1.9 1.8-1.1 3.4.6 1.1 2.1 1.9 3.5 1.9 1.6 0 2.5.6 2.5 1.6 0 1.1-.8 1.5-3 1.2-1.6-.1-3.1.2-3.2.7-.4 1.4 6.1 1.9 7.7.5 2.2-1.8 1.1-4.4-2.3-5.5-3.5-1-3.8-3-.5-3 2.1 0 4.5-1.4 2.7-1.6-.5 0-1.7-.2-2.6-.4-.9-.2-2.6.4-3.7 1.2zM28 129.3v33.8l7.3-8.5c3.9-4.6 8.1-8.8 9.2-9.2 1.1-.4 7.2-.9 13.5-1 6.3-.1 11.7-.2 11.9-.3.5-.2-4.7-7.1-8.2-10.8-3-3.2-3-4.2.3-7.3 2.6-2.4 8.1-10.1 7.7-10.7-.3-.4-5.8-.7-12.2-.7l-11.6.1-3.2-3.1c-1.8-1.7-5.8-6-8.9-9.6l-5.7-6.5-.1 33.8zm197.9-26.1c-11.2 12.9-9 11.8-24 11.8h-13.1l4.3 5.2c2.4 2.9 4.6 5.5 4.9 5.8 3.4 3.3 3.3 3.8-2.4 10.5-3.1 3.6-5.6 7-5.6 7.5 0 .6 4.3.9 10.8.8 5.9-.1 11.7.2 12.9.6 1.1.4 5.6 4.7 9.8 9.6 4.3 5 7.9 9 8 9 .2 0 .3-15.1.3-33.5s-.1-33.5-.3-33.5c-.1 0-2.7 2.8-5.6 6.2zM6 119.3c-1.4.7-3.4 2.8-4.4 4.8-5.1 9.5 4.6 19.8 14.4 15.4 4.4-2 6.4-5.1 6.4-10.3 0-8.4-8.8-13.7-16.4-9.9zm236.4 1.6c-8.7 5.3-5.6 19.2 4.6 20.4 4.1.5 6.7-.3 9.7-3.2 3.1-2.9 3.8-6.5 2.4-11.2-2.1-7.1-10.2-10-16.7-6zM182 161c-.2 5.7-1.4 17.7-1.9 18.2-.3.3-3.7.9-7.6 1.3-11.9 1-11.8.6-2 10.5l8.7 8.8-.7 12.3c-.4 6.8-.9 12.7-1.2 13.1-1.6 2.8 3.3-1.9 23.2-21.9 12.4-12.5 23.1-23.3 23.7-24 .9-1.1-.2-1.2-5.8-.8-3.8.3-9.3.6-12.2.7l-5.2.2-9.5-9.4c-5.2-5.2-9.5-9.2-9.5-9zm-114 9.7l-8.5 8.5-11.4-.6c-6.3-.4-11.8-.9-12.2-1.2-.4-.2-1-.1-1.3.4-.3.5 10.1 11.4 23 24.3l23.5 23.4-.6-12.3-.6-12.2 9-9.2c5-5.1 8.9-9.3 8.7-9.5-.6-.6-8.5-1.6-12.9-1.5-2.8 0-5-.5-5.2-1.2-.2-.6-.6-4.7-.9-9.1-.3-4.4-.5-8.1-.6-8.3-.1-1.1-2.7 1.1-10 8.5zm73.5 21c-1.6 1.4-4.1 3.5-5.5 4.7-5.9 4.9-5.7 4.9-7.7 2.9-3.5-3.4-11.1-9.3-12-9.3-.5 0-.9 5.3-.9 11.7l.1 11.8-4 4c-2.2 2.2-6.7 6.3-10 9.1l-5.9 5.1h33.7c18.5 0 33.7-.3 33.7-.6-.1-.3-2.6-2.6-5.6-5.1-3-2.5-6.9-5.9-8.7-7.6l-3.2-3.2-.5-13-.5-13-3 2.5zM40.4 203.9c-4.1 2.5-6.1 6-5.8 10 .4 4.7 2.3 8 5.6 9.7 9.8 5.1 20.2-4.9 15.6-15-2.4-5.5-10.2-7.8-15.4-4.7zm168.8-.3c-3.5 1.4-7.2 6.7-7.2 10.2 0 1.3.7 3.6 1.4 5.1 5.3 10.1 20 7.3 21.3-4.1.5-4.2.2-4.9-2.8-8.1-3.9-4.1-8-5.1-12.7-3.1zm-83.7 34.3c-4.8 2-7.8 8.4-6.4 13.5 3.5 12.6 21.9 10.3 21.9-2.8 0-4.8-1.9-8-6-10.1-3.2-1.6-6.4-1.8-9.5-.6z"/></svg>